<svg xmlns="http://www.w3.org/2000/svg" width="12cm" height="222.849" style="zoom:1" version="1.1" viewBox="358 100 248.21 294.81"><metadata/><g transform="translate(24.6 -19)"><rect width="201" height="44" x="360" y="120" fill="#fff"/><rect width="240.37" height="43.817" x="340.92" y="120.09" fill="none" stroke="#7f7f7f" stroke-width="2.183"/><text x="460.5" y="146.772" fill="#7f7f7f" font-family="'courier new'" font-size="14.323" text-anchor="middle"><tspan x="460.5" y="146.772" fill="#7f7f7f" font-size="21.167">@CalledMethods({})</tspan></text></g><g transform="translate(27.142 149.8)"><line x1="460.5" x2="460.5" y1="200" y2="173.74" fill="none" stroke="#000" stroke-width="2"/><polygon points="465.5 176.24 460.5 173.74 455.5 176.24 460.5 166.24"/><polygon fill="none" stroke="#000" stroke-width="2" points="465.5 176.24 460.5 173.74 455.5 176.24 460.5 166.24"/></g><text x="489.337" y="376.581" fill="#7f7f7f" font-family="'courier new'" font-size="15.804" text-anchor="middle"><tspan x="489.337" y="376.581" fill="#7f7f7f" font-size="21.167">@CalledMethodsBottom</tspan></text><path fill="none" stroke="#000" stroke-width="1.411" d="m604.17 233.4"/><g transform="translate(28.636 155.35)"><rect width="249.1" height="43.36" x="185.22" y="31.009" fill="none" stroke="#000" stroke-width="1.025"/><text x="348.128" y="55.567" fill="#000" font-family="'courier new'" font-size="21.167" text-anchor="middle"><tspan x="310" y="58" font-size="21.167">@CalledMethods(&quot;a&quot;)</tspan></text></g><g transform="translate(245.56 155.35)"><rect width="246.7" height="43.36" x="257.39" y="31.009" fill="none" stroke="#000" stroke-width="1.025"/><text x="348.128" y="55.567" fill="#000" font-family="'courier new'" font-size="21.167" text-anchor="middle"><tspan x="380" y="58" font-size="21.167">@CalledMethods(&quot;b&quot;)</tspan></text></g><path fill="none" stroke="#000" stroke-width="1.411" d="m501.1 181.86"/><g transform="translate(143.34 239.26)"><rect width="339.33" height="43.13" x="176.38" y="31.124" fill="none" stroke="#000" stroke-width="1.254"/><text x="348.128" y="55.567" fill="#000" font-family="'courier new'" font-size="21.167" text-anchor="middle"><tspan x="348.128" y="55.567" font-size="21.167">@CalledMethods({&quot;a&quot;, &quot;b&quot;})</tspan></text></g><g transform="matrix(.57938 .81506 -.81506 .57938 345.91 -324.02)"><line x1="460.5" x2="460.5" y1="200" y2="173.74" fill="none" stroke="#000" stroke-width="2"/><polygon points="455.5 176.24 460.5 166.24 465.5 176.24 460.5 173.74"/><polygon fill="none" stroke="#000" stroke-width="2" points="455.5 176.24 460.5 166.24 465.5 176.24 460.5 173.74"/></g><path fill="none" stroke="#000" stroke-width="1.475" d="m452.18 165.76-30.11 20.419z"/><path fill="none" stroke="#000" stroke-width="1.475" d="m450.68 166.06-30.11 20.419z"/><g><g transform="matrix(-1 0 0 1 898.43 -83.701) matrix(.57938 .81506 -.81506 .57938 347.02 -157.87)"><line x1="460.5" x2="460.5" y1="200" y2="173.74" fill="none" stroke="#000" stroke-width="2"/><polygon points="465.5 176.24 460.5 173.74 455.5 176.24 460.5 166.24"/><polygon fill="none" stroke="#000" stroke-width="2" points="465.5 176.24 460.5 173.74 455.5 176.24 460.5 166.24"/></g><path fill="none" stroke="#000" stroke-width="1.475" d="m453.28 331.9-30.11 20.419z" transform="matrix(-1 0 0 1 898.43 -83.701)"/><path fill="none" stroke="#000" stroke-width="1.475" d="m451.78 332.2-30.11 20.419z" transform="matrix(-1 0 0 1 898.43 -83.701)"/></g><g><g transform="translate(78.376 -83.701) matrix(.57938 .81506 -.81506 .57938 347.02 -157.87)"><line x1="460.5" x2="460.5" y1="200" y2="173.74" fill="none" stroke="#000" stroke-width="2"/><polygon points="460.5 166.24 465.5 176.24 460.5 173.74 455.5 176.24"/><polygon fill="none" stroke="#000" stroke-width="2" points="460.5 166.24 465.5 176.24 460.5 173.74 455.5 176.24"/></g><path fill="none" stroke="#000" stroke-width="1.475" d="m453.28 331.9-30.11 20.419z" transform="translate(78.376 -83.701)"/><path fill="none" stroke="#000" stroke-width="1.475" d="m451.78 332.2-30.11 20.419z" transform="translate(78.376 -83.701)"/></g><rect width="265.91" height="43.86" x="358.75" y="349.88" fill="none" stroke="#7f7f7f" stroke-width="2.14"/><g><g transform="matrix(-1 0 0 1 981.48 -166.75) matrix(.57938 .81506 -.81506 .57938 347.02 -157.87)"><line x1="460.5" x2="460.5" y1="200" y2="173.74" fill="none" stroke="#000" stroke-width="2"/><polygon points="460.5 173.74 455.5 176.24 460.5 166.24 465.5 176.24"/><polygon fill="none" stroke="#000" stroke-width="2" points="460.5 173.74 455.5 176.24 460.5 166.24 465.5 176.24"/></g><path fill="none" stroke="#000" stroke-width="1.475" d="m453.28 331.9-30.11 20.419z" transform="matrix(-1 0 0 1 981.48 -166.75)"/><path fill="none" stroke="#000" stroke-width="1.475" d="m451.78 332.2-30.11 20.419z" transform="matrix(-1 0 0 1 981.48 -166.75)"/></g></svg>