<svg xmlns="http://www.w3.org/2000/svg" xmlns:xlink="http://www.w3.org/1999/xlink" width="25.5cm" height="5.5cm" viewBox="328 238 1013 205"><g><rect style="fill:#fff" width="160" height="42" x="329.198" y="320.056"/><rect style="fill:none;fill-opacity:0;stroke-width:2;stroke:#000" width="160" height="42" x="329.198" y="320.056"/><text font-size="16" style="fill:#000;text-anchor:middle;font-family:courier new;font-style:normal;font-weight:400" x="409.198" y="345.906"><tspan x="409.198" y="345.906">@Fenum(&quot;A&quot;)</tspan></text></g><g><rect style="fill:#fff" width="189.8" height="42" x="1149.67" y="320"/><rect style="fill:none;fill-opacity:0;stroke-width:2;stroke:#7f7f7f" width="189.8" height="42" x="1149.67" y="320"/><text font-size="16" style="fill:#7f7f7f;text-anchor:middle;font-family:courier new;font-style:normal;font-weight:400" x="1244.57" y="345.85"><tspan x="1244.57" y="345.85">@FenumUnqualified</tspan></text></g><g><rect style="fill:#fff" width="160" height="42" x="740" y="240"/><rect style="fill:none;fill-opacity:0;stroke-width:2;stroke:#7f7f7f" width="160" height="42" x="740" y="240"/><text font-size="16" style="fill:#7f7f7f;text-anchor:middle;font-family:courier new;font-style:normal;font-weight:400" x="820" y="265.85"><tspan x="820" y="265.85">@FenumTop</tspan></text></g><g><line style="fill:none;fill-opacity:0;stroke-width:2;stroke:#000" x1="409.198" x2="724.153" y1="320.056" y2="274.779"/><polygon style="fill:#000" points="725.149 281.708 738.011 272.787 723.157 267.85"/><polygon style="fill:none;fill-opacity:0;stroke-width:2;stroke:#000" points="725.149 281.708 738.011 272.787 723.157 267.85"/></g><g><line style="fill:none;fill-opacity:0;stroke-width:2;stroke:#000" x1="1244.57" x2="915.838" y1="320" y2="274.318"/><polygon style="fill:#000" points="916.801 267.385 901.971 272.391 914.874 281.251"/><polygon style="fill:none;fill-opacity:0;stroke-width:2;stroke:#000" points="916.801 267.385 901.971 272.391 914.874 281.251"/></g><g><line style="fill:none;fill-opacity:0;stroke-width:2;stroke:#000" x1="820" x2="424.134" y1="400" y2="363.436"/><polygon style="fill:#000" points="424.778 356.465 410.194 362.148 423.491 370.406"/><polygon style="fill:none;fill-opacity:0;stroke-width:2;stroke:#000" points="424.778 356.465 410.194 362.148 423.491 370.406"/></g><g><line style="fill:none;fill-opacity:0;stroke-width:2;stroke:#000" x1="820" x2="1229.63" y1="400" y2="363.337"/><polygon style="fill:#000" points="1230.26 370.309 1243.58 362.089 1229.01 356.365"/><polygon style="fill:none;fill-opacity:0;stroke-width:2;stroke:#000" points="1230.26 370.309 1243.58 362.089 1229.01 356.365"/></g><g><rect style="fill:#fff" width="160" height="42" x="740" y="400"/><rect style="fill:none;fill-opacity:0;stroke-width:2;stroke:#7f7f7f" width="160" height="42" x="740" y="400"/><text font-size="16" style="fill:#7f7f7f;text-anchor:middle;font-family:courier new;font-style:normal;font-weight:400" x="820" y="425.85"><tspan x="820" y="425.85">@FenumBottom</tspan></text></g><g><rect style="fill:#fff" width="160" height="41.733" x="499.97" y="320.092"/><rect style="fill:none;fill-opacity:0;stroke-width:2;stroke:#000" width="160" height="41.733" x="499.97" y="320.092"/><text font-size="16" style="fill:#000;text-anchor:middle;font-family:courier new;font-style:normal;font-weight:400" x="579.97" y="345.808"><tspan x="579.97" y="345.808">@Fenum(&quot;B&quot;)</tspan></text></g><g><rect style="fill:#fff" width="160" height="41.733" x="739.446" y="320.092"/><rect style="fill:none;fill-opacity:0;stroke-width:2;stroke:#000" width="160" height="41.733" x="739.446" y="320.092"/><text font-size="16" style="fill:#000;text-anchor:middle;font-family:courier new;font-style:normal;font-weight:400" x="819.446" y="345.808"><tspan x="819.446" y="345.808">@FenumC</tspan></text></g><g><line style="fill:none;fill-opacity:0;stroke-width:2;stroke:#000" x1="579.97" x2="729.545" y1="320.092" y2="283.269"/><polygon style="fill:#000" points="736.827 281.476 728.313 288.721 729.545 283.269 725.922 279.011"/><polygon style="fill:none;fill-opacity:0;stroke-width:2;stroke:#000" points="736.827 281.476 728.313 288.721 729.545 283.269 725.922 279.011"/></g><g><line style="fill:none;fill-opacity:0;stroke-width:2;stroke:#000" x1="819.446" x2="819.702" y1="320.092" y2="292.736"/><polygon style="fill:#000" points="819.773 285.237 824.679 295.283 819.702 292.736 814.679 295.189"/><polygon style="fill:none;fill-opacity:0;stroke-width:2;stroke:#000" points="819.773 285.237 824.679 295.283 819.702 292.736 814.679 295.189"/></g><g><line style="fill:none;fill-opacity:0;stroke-width:2;stroke:#000" x1="820" x2="589.585" y1="400" y2="363.353"/><polygon style="fill:#000" points="582.178 362.175 592.84 358.808 589.585 363.353 591.269 368.684"/><polygon style="fill:none;fill-opacity:0;stroke-width:2;stroke:#000" points="582.178 362.175 592.84 358.808 589.585 363.353 591.269 368.684"/></g><g><line style="fill:none;fill-opacity:0;stroke-width:2;stroke:#000" x1="820" x2="819.587" y1="400" y2="371.559"/><polygon style="fill:#000" points="819.478 364.06 824.623 373.986 819.587 371.559 814.624 374.131"/><polygon style="fill:none;fill-opacity:0;stroke-width:2;stroke:#000" points="819.478 364.06 824.623 373.986 819.587 371.559 814.624 374.131"/></g><g><rect style="fill:#fff" width="40" height="42" x="1079.65" y="320"/><rect style="fill:none;fill-opacity:0;stroke-width:2;stroke:#000" width="40" height="42" x="1079.65" y="320"/><text font-size="12.8" style="fill:#000;text-anchor:middle;font-family:courier new;font-style:normal;font-weight:400" x="1099.65" y="344.9"><tspan x="1099.65" y="344.9">...</tspan></text></g><g><rect style="fill:#fff" width="40" height="41.809" x="669.338" y="320.036"/><rect style="fill:none;fill-opacity:0;stroke-width:2;stroke:#000" width="40" height="41.809" x="669.338" y="320.036"/><text font-size="12.8" style="fill:#000;text-anchor:middle;font-family:courier new;font-style:normal;font-weight:400" x="689.338" y="344.841"><tspan x="689.338" y="344.841">...</tspan></text></g><g><rect style="fill:#fff" width="160" height="41.733" x="910.434" y="320.572"/><rect style="fill:none;fill-opacity:0;stroke-width:2;stroke:#000" width="160" height="41.733" x="910.434" y="320.572"/><text font-size="16" style="fill:#000;text-anchor:middle;font-family:courier new;font-style:normal;font-weight:400" x="990.434" y="346.288"><tspan x="990.434" y="346.288">@FenumD</tspan></text></g><g><line style="fill:none;fill-opacity:0;stroke-width:2;stroke:#000" x1="990.434" x2="892.147" y1="320.572" y2="286.217"/><polygon style="fill:#000" points="885.067 283.743 896.156 282.322 892.147 286.217 892.857 291.762"/><polygon style="fill:none;fill-opacity:0;stroke-width:2;stroke:#000" points="885.067 283.743 896.156 282.322 892.147 286.217 892.857 291.762"/></g><g><line style="fill:none;fill-opacity:0;stroke-width:2;stroke:#000" x1="820" x2="980.928" y1="400" y2="364.407"/><polygon style="fill:#000" points="988.251 362.787 979.566 369.828 980.928 364.407 977.407 360.064"/><polygon style="fill:none;fill-opacity:0;stroke-width:2;stroke:#000" points="988.251 362.787 979.566 369.828 980.928 364.407 977.407 360.064"/></g></svg>