<svg xmlns="http://www.w3.org/2000/svg" xmlns:xlink="http://www.w3.org/1999/xlink" width="5.5cm" height="11.5cm" viewBox="358 38 204 447"><g><rect style="fill:#fff" width="201" height="44" x="360" y="40"/><rect style="fill:none;fill-opacity:0;stroke-width:2;stroke:#7f7f7f" width="201" height="44" x="360" y="40"/><text font-size="15.804" style="fill:#7f7f7f;text-anchor:middle;font-family:courier new;font-style:normal;font-weight:400" x="460.5" y="66.772"><tspan x="460.5" y="66.772">@UnknownRegex</tspan></text></g><g><rect style="fill:#fff" width="201" height="44" x="360" y="120"/><rect style="fill:none;fill-opacity:0;stroke-width:2;stroke:#000" width="201" height="44" x="360" y="120"/><text font-size="15.804" style="fill:#000;text-anchor:middle;font-family:courier new;font-style:normal;font-weight:400" x="460.5" y="146.772"><tspan x="460.5" y="146.772">@Regex(0) = @Regex</tspan></text></g><g><rect style="fill:#fff" width="201" height="44" x="360" y="280"/><rect style="fill:none;fill-opacity:0;stroke-width:2;stroke:#000" width="201" height="44" x="360" y="280"/><text font-size="15.804" style="fill:#000;text-anchor:middle;font-family:courier new;font-style:normal;font-weight:400" x="460.5" y="306.772"><tspan x="460.5" y="306.772">@Regex(2)</tspan></text></g><g><rect style="fill:#fff" width="201" height="44" x="360" y="200"/><rect style="fill:none;fill-opacity:0;stroke-width:2;stroke:#000" width="201" height="44" x="360" y="200"/><text font-size="15.804" style="fill:#000;text-anchor:middle;font-family:courier new;font-style:normal;font-weight:400" x="460.5" y="226.772"><tspan x="460.5" y="226.772">@Regex(1)</tspan></text></g><g><rect style="fill:#fff" width="201" height="44" x="360" y="440"/><rect style="fill:none;fill-opacity:0;stroke-width:2;stroke:#7f7f7f" width="201" height="44" x="360" y="440"/><text font-size="15.804" style="fill:#7f7f7f;text-anchor:middle;font-family:courier new;font-style:normal;font-weight:400" x="460.5" y="466.772"><tspan x="460.5" y="466.772">@RegexBottom</tspan></text></g><g><line style="fill:none;fill-opacity:0;stroke-width:2;stroke:#000" x1="460.5" x2="460.5" y1="120" y2="93.736"/><polygon style="fill:#000" points="460.5 86.236 465.5 96.236 460.5 93.736 455.5 96.236"/><polygon style="fill:none;fill-opacity:0;stroke-width:2;stroke:#000" points="460.5 86.236 465.5 96.236 460.5 93.736 455.5 96.236"/></g><g><line style="fill:none;fill-opacity:0;stroke-width:2;stroke:#000" x1="460" x2="460.365" y1="360" y2="333.735"/><polygon style="fill:#000" points="460.469 326.236 465.33 336.304 460.365 333.735 455.331 336.165"/><polygon style="fill:none;fill-opacity:0;stroke-width:2;stroke:#000" points="460.469 326.236 465.33 336.304 460.365 333.735 455.331 336.165"/></g><g><line style="fill:none;fill-opacity:0;stroke-width:2;stroke:#000" x1="460.5" x2="460.5" y1="280" y2="253.736"/><polygon style="fill:#000" points="460.5 246.236 465.5 256.236 460.5 253.736 455.5 256.236"/><polygon style="fill:none;fill-opacity:0;stroke-width:2;stroke:#000" points="460.5 246.236 465.5 256.236 460.5 253.736 455.5 256.236"/></g><g><line style="fill:none;fill-opacity:0;stroke-width:2;stroke:#000" x1="460.5" x2="460.5" y1="200" y2="173.736"/><polygon style="fill:#000" points="460.5 166.236 465.5 176.236 460.5 173.736 455.5 176.236"/><polygon style="fill:none;fill-opacity:0;stroke-width:2;stroke:#000" points="460.5 166.236 465.5 176.236 460.5 173.736 455.5 176.236"/></g><g><line style="fill:none;fill-opacity:0;stroke-width:2;stroke:#000" x1="460.5" x2="460.127" y1="440" y2="411.491"/><polygon style="fill:#000" points="460.029 403.992 465.16 413.926 460.127 411.491 455.16 414.056"/><polygon style="fill:none;fill-opacity:0;stroke-width:2;stroke:#000" points="460.029 403.992 465.16 413.926 460.127 411.491 455.16 414.056"/></g><text font-size="12.8" style="fill:#000;text-anchor:start;font-family:courier new;font-style:normal;font-weight:400" x="458.11" y="372.72"><tspan x="458.11" y="372.72">.</tspan></text><text font-size="12.8" style="fill:#000;text-anchor:start;font-family:courier new;font-style:normal;font-weight:400" x="458.078" y="381.66"><tspan x="458.078" y="381.66">.</tspan></text><text font-size="12.8" style="fill:#000;text-anchor:start;font-family:courier new;font-style:normal;font-weight:400" x="458.134" y="389.92"><tspan x="458.134" y="389.92">.</tspan></text></svg>