<svg xmlns="http://www.w3.org/2000/svg" xmlns:svg="http://www.w3.org/2000/svg" id="svg199" width="1030" height="410" version="1.1" viewBox="-2 -2 1443.198 565"><metadata id="metadata84"/><style id="style3" type="text/css">polyline{stroke:#000;fill:none;stroke-width:3.2;marker-start:url(#arrow);stroke-dasharray:0,5,1000}rect{fill:#fff;stroke:#000;stroke-width:2.14}text{font-size:14.10753822px;font-style:normal;font-weight:400;font-family:courier new;text-anchor:middle}polyline.noarrow{marker-start:none;stroke-dasharray:none}text.gray{fill:gray}rect.gray{stroke:gray}</style><defs id="defs8"><marker id="arrow" markerHeight="5" markerWidth="5" orient="auto" refX="0" refY="2.5"><path style="fill:#000" id="path5" d="M 5,0 0,2.5 5,5"/></marker><marker id="arrow-3" markerHeight="5" markerWidth="5" orient="auto" refX="0" refY="2.5"><path style="fill:#000" id="path5-6" d="M 5,0 0,2.5 5,5"/></marker><marker id="marker251" markerHeight="5" markerWidth="5" orient="auto" refX="0" refY="2.5"><path style="fill:#000" id="path249" d="M 5,0 0,2.5 5,5"/></marker><marker id="arrow-2" markerHeight="5" markerWidth="5" orient="auto" refX="0" refY="2.5"><path style="fill:#000" id="path5-7" d="M 5,0 0,2.5 5,5"/></marker><marker id="arrow-9" markerHeight="5" markerWidth="5" orient="auto" refX="0" refY="2.5"><path style="fill:#000" id="path5-3" d="M 5,0 0,2.5 5,5"/></marker></defs><g id="value-subtyping" transform="translate(78.465126)"><g id="sub-top"><rect id="rect10" width="130" height="40" x="510" y="0" class="gray"/><text id="text12" x="575" y="24.108" class="gray">@UnknownVal</text></g><g id="sub-intval"><rect id="rect15" width="130" height="40" x="350" y="90"/><text id="text17" x="415" y="114.108">@IntVal(long[])</text></g><g id="sub-intrange"><rect id="rect20" width="170" height="40" x="170" y="90"/><text id="text22" x="255" y="114.108">@IntRange(long,long)</text></g><g id="sub-doubleval"><rect id="rect25" width="170" height="40" x="490" y="90"/><text id="text27" x="575" y="114.108">@DoubleVal(double[])</text></g><g id="sub-boolval"><rect id="rect30" width="160" height="40" x="0" y="90"/><text id="text32" x="80" y="114.108">@BoolVal(boolean[])</text></g><g id="sub-stringval"><rect id="rect35" width="170" height="40" x="670" y="90"/><text id="text37" x="755" y="114.108">@StringVal(String[])</text></g><g id="sub-arraylen"><rect id="rect40" width="140" height="40" x="850" y="90"/><text id="text42" x="920" y="114.108">@ArrayLen(int[])</text></g><g id="sub-arraylenrange"><rect id="rect45" width="200" height="40" x="1000" y="90"/><text id="text47" x="1100" y="114.108">@ArrayLenRange(int,int)</text></g><g id="sub-bot"><rect id="rect50" width="130" height="40" x="510" y="180" class="gray"/><text id="text52" x="575" y="204.108" class="gray">@BottomVal</text></g><polyline id="polyline55" points="575 40 575 90"/><polyline id="polyline57" points="575 65 80 65 80 90" class="noarrow"/><polyline id="polyline59" points="575 65 1100 65 1100 90" class="noarrow"/><polyline id="polyline61" points="255 65 255 90" class="noarrow"/><polyline id="polyline63" points="415 65 415 90" class="noarrow"/><polyline id="polyline65" points="755 65 755 90" class="noarrow"/><polyline id="polyline67" points="920 65 920 90" class="noarrow"/><polyline id="polyline69" points="575 130 575 180"/><polyline id="polyline71" points="80 130 80 155 575 155"/><polyline id="polyline73" points="1100 130 1100 155 570 155"/><polyline id="polyline75" points="255 130 255 155"/><polyline id="polyline77" points="415 130 415 155"/><polyline id="polyline79" points="755 130 755 155"/><polyline id="polyline81" points="920 130 920 155"/></g><g id="num-int-range-0-200" transform="translate(-33.62791)"><rect id="rect84" width="200" height="40" x="35" y="240"/><text id="text86" x="135" y="264.108">@IntRange(from=0,to=200)</text></g><g id="num-int-1" transform="translate(-33.62791)"><rect id="rect89" width="130" height="40" x="310" y="400"/><text id="text91" x="375" y="424.108">@IntVal(1)</text></g><g id="num-int-1-2" transform="translate(-33.62791)"><rect id="rect94" width="130" height="40" x="310" y="320"/><text id="text96" x="375" y="344.108">@IntVal({1,2})</text></g><g id="num-int-range-0-1" transform="translate(-33.62791)"><rect id="rect99" width="200" height="40" x="35" y="320"/><text id="text101" x="135" y="344.108">@IntRange(from=0,to=1)</text></g><rect id="rect104" width="130" height="40" x="439.558" y="320"/><text id="text106" x="504.558" y="344.108">@DoubleVal(1.0)</text><g id="num-double-0-2" transform="translate(-33.62791)"><rect id="rect109" width="210" height="40" x="270" y="240"/><text id="text111" x="375" y="264.108">@DoubleVal({0.0,1.0,2.0})</text></g><polyline id="polyline114" points="135 280 135 320" transform="translate(-33.62791)"/><polyline id="polyline116" points="375 280 375 320" transform="translate(-33.62791)"/><polyline id="polyline118" points="375 360 375 400" transform="translate(-33.62791)"/><polyline id="polyline120" points="195 280 315 320" transform="translate(-33.62791)"/><polyline id="polyline122" points="315 280 195 320" transform="translate(-33.62791)"/><polyline id="polyline124" points="435 280 555 320" transform="translate(-33.62791)"/><polyline id="polyline126" points="195 360 315 400" transform="translate(-33.62791)"/><polyline id="polyline128" points="555 360 435 400" transform="translate(-33.62791)"/><g id="string-a" transform="translate(299.84916)"><rect id="rect131" width="130" height="40" x="800" y="520"/><text id="text133" x="865" y="544.108">@StringVal(&quot;a&quot;)</text></g><g id="string-a-aa" transform="translate(299.84916)"><rect id="rect136" width="190" height="40" x="650" y="450"/><text id="text138" x="745" y="474.108">@StringVal({&quot;a&quot;,&quot;aa&quot;})</text></g><g id="string-a-b" transform="translate(299.84916)"><rect id="rect141" width="180" height="40" x="895" y="450"/><text id="text143" x="985" y="474.108">@StringVal({&quot;a&quot;,&quot;b&quot;})</text></g><g id="string-a-aa-b" transform="translate(299.84916)"><rect id="rect146" width="220" height="40" x="755" y="380"/><text id="text148" x="865" y="404.108">@StringVal({&quot;a&quot;,&quot;aa&quot;,&quot;b&quot;})</text></g><g id="matches-regex-a-star" transform="translate(299.84916)"><rect id="rect151" width="170" height="40" x="650" y="320"/><text id="text153" x="740" y="344.108">@MatchesRegex(&quot;a*&quot;)</text></g><g id="matches-regex-a-star-b-star" transform="translate(299.84916)"><rect id="rect156" width="230" height="40" x="630" y="240"/><text id="text158" x="745" y="264.108">@MatchesRegex({&quot;a*&quot;, &quot;b*&quot;})</text></g><g id="arraylen-1" transform="translate(257.81421)"><rect id="rect161" width="130" height="40" x="1040" y="380"/><text id="text163" x="1105" y="404.108">@ArrayLen(1)</text></g><g id="arraylen-1-2" transform="translate(299.84916)"><rect id="rect166" width="140" height="40" x="915" y="310"/><text id="text168" x="985" y="334.108">@ArrayLen({1,2})</text></g><g id="arraylenrange" transform="translate(299.84916)"><rect id="rect171" width="180" height="40" x="895" y="240"/><text id="text173" x="985" y="264.108">@ArrayLenRange(0,200)</text></g><polyline id="polyline176" points="985 280 985 310" transform="translate(299.84916)"/><polyline id="polyline178" points="1015 350 1075 380" transform="translate(299.84916)"/><polyline id="polyline180" points="955 350 895 380" transform="translate(299.84916)"/><polyline id="polyline182" points="835 420 775 450" transform="translate(299.84916)"/><polyline id="polyline184" points="895 420 955 450" transform="translate(299.84916)"/><polyline id="polyline186" points="1075 420 1015 450" transform="translate(299.84916)"/><polyline id="polyline188" points="955 490 895 520" transform="translate(299.84916)"/><polyline id="polyline190" points="775 490 835 520" transform="translate(299.84916)"/><polyline id="polyline192" points="720 360 720 450" transform="translate(299.84916)"/><rect id="rect136-0" width="190" height="40" x="680.1" y="447.837"/><text id="text138-6" x="775.1" y="471.945">@StringVal({&quot;c&quot;,&quot;cc&quot;})</text><polyline id="polyline192-2" points="720 360 720 450" transform="translate(30.09959,-2.1630304)" style="fill:none;stroke:#000;stroke-width:3.2;stroke-dasharray:0,5,1000;marker-start:url(#arrow-9)"/><polyline id="polyline194" points="720 280 720 320" transform="translate(299.84916)"/><polyline id="polyline196" points="820 280 870 380" transform="translate(299.84916)"/><g id="matches-regex-a-star-7" transform="translate(-13.003633,-1.788207)"><rect id="rect151-5" width="280.793" height="39.67" x="639.085" y="320.165"/><text id="text153-3" x="782.035" y="344.108">@DoesNotMatchRegex({&quot;a*&quot;,&quot;b*&quot;}))</text></g><rect id="rect156-6" width="230" height="40" x="678.647" y="238.212"/><text id="text158-2" x="793.647" y="262.319">@DoesNotMatchRegex({&quot;b*&quot;})</text><polyline id="polyline194-9" points="720 280 720 320" transform="translate(29.031255,-1.788207)" style="fill:none;stroke:#000;stroke-width:3.2;stroke-dasharray:0,5,1000;marker-start:url(#arrow-3)"/><path style="fill:none;stroke:#000;stroke-width:3.20026;stroke-linecap:butt;stroke-linejoin:miter;stroke-miterlimit:4;stroke-dasharray:none;stroke-opacity:1;marker-start:url(#arrow-2)" id="path17328" d="M 891.19251,279.37975 984.8836,447.7049"/></svg>